<svg  itemprop="logo" width="280" height="80" viewBox="0 0 175 51" fill="none" xmlns="http://www.w3.org/2000/svg">
<path fill-rule="evenodd" clip-rule="evenodd" d="M25.0401 50.0881C38.8327 50.0881 50.0881 38.8327 50.0881 25.048C50.0881 11.2633 38.8327 0 25.0401 0C11.2475 0 0 11.2554 0 25.048C0 38.8406 11.2554 50.0881 25.0401 50.0881Z" fill="#FEFEFE"/>
<path fill-rule="evenodd" clip-rule="evenodd" d="M25.0402 49.4676C38.4929 49.4676 49.4717 38.4928 49.4717 25.048C49.4717 11.6032 38.4929 0.620483 25.0402 0.620483C11.5875 0.620483 0.620605 11.5953 0.620605 25.048C0.620605 38.5007 11.5954 49.4676 25.0402 49.4676Z" fill="#201E1E"/>
<path fill-rule="evenodd" clip-rule="evenodd" d="M25.0402 47.0252C37.1453 47.0252 47.0254 37.153 47.0254 25.0479C47.0254 12.9428 37.1453 3.06274 25.0402 3.06274C12.9352 3.06274 3.06299 12.9428 3.06299 25.0479C3.06299 37.153 12.9352 47.0252 25.0402 47.0252Z" fill="#115B9E"/>
<path fill-rule="evenodd" clip-rule="evenodd" d="M25.0403 44.583C35.8056 44.583 44.5831 35.8015 44.5831 25.0481C44.5831 14.2946 35.8056 5.50525 25.0403 5.50525C14.2749 5.50525 5.50537 14.2827 5.50537 25.0481C5.50537 35.8134 14.2828 44.583 25.0403 44.583Z" fill="#FEFEFE"/>
<path fill-rule="evenodd" clip-rule="evenodd" d="M8.90771 9.87218L9.80483 8.55615C13.7569 19.7009 14.9859 32.1775 14.4445 44.3418L13.2668 43.7411C13.7094 32.0115 12.9546 21.0169 8.90771 9.87218Z" fill="#201E1E"/>
<path fill-rule="evenodd" clip-rule="evenodd" d="M15.1917 21.8073C17.7368 21.6887 23.6214 21.4081 26.534 23.3012C28.4508 24.55 29.8261 24.9136 32.632 24.2496C34.8886 23.7201 38.8486 25.8463 39.1687 27.2888C38.6431 17.8197 41.0657 12.7097 31.5215 13.508C30.5453 13.591 28.1465 13.6345 26.5182 13.0259C22.1828 11.9312 18.46 9.83658 10.6152 11.9391C12.6663 14.6264 14.01 17.3336 14.5436 20.5071C14.6424 21.088 14.7372 21.6729 14.8241 22.2657C14.8558 21.997 14.9625 21.8429 15.1956 21.8033L15.1917 21.8073Z" fill="#201E1E"/>
<path fill-rule="evenodd" clip-rule="evenodd" d="M39.1884 27.4074C39.1884 27.3718 39.1765 27.3323 39.1686 27.2928C38.8485 25.8503 34.8886 23.7241 32.6319 24.2537C29.826 24.9137 28.4507 24.5501 26.534 23.3052C23.6253 21.4122 17.7367 21.6927 15.1916 21.8113C14.9585 21.8508 14.8517 22.005 14.8201 22.2737C14.6858 23.3921 15.8279 26.5024 14.2668 31.5491C18.0252 30.8457 19.5072 30.5137 24.5224 32.5925C26.1664 33.2722 28.2373 33.9164 31.885 33.126C38.2122 31.7507 41.1407 36.1453 41.1288 36.1374C39.4136 31.8455 39.3386 29.0475 39.1884 27.4074Z" fill="#115B9E"/>
<path fill-rule="evenodd" clip-rule="evenodd" d="M33.5805 16.3021C34.2998 16.3021 34.8609 16.4799 35.2601 16.8356C35.6672 17.1992 35.9043 17.7367 35.9477 18.4204C35.9715 18.6931 35.9636 18.9539 35.9122 19.2108C35.8529 19.4558 35.758 19.685 35.6079 19.8787C35.4537 20.0723 35.2522 20.2265 34.9874 20.3371C34.7345 20.4478 34.3946 20.5071 33.9796 20.515L33.5805 20.5229V19.0883H33.7069C34.1496 19.0804 34.3511 18.8353 34.3077 18.3572C34.2721 17.9817 34.0271 17.7802 33.5765 17.7367V16.2942L33.5805 16.3021ZM30.9958 16.3377L31.5649 22.4712L33.288 22.4436L33.1102 20.5268H33.5844V19.0922L32.9719 19.1001L32.8454 17.7367H33.3552C33.4382 17.7288 33.5172 17.7367 33.5844 17.7446V16.3021H33.5093L30.9998 16.3337L30.9958 16.3377Z" fill="#FEFEFE"/>
<path fill-rule="evenodd" clip-rule="evenodd" d="M27.7276 17.6418C27.6841 17.2427 27.5576 16.9898 27.364 16.8514C27.1703 16.725 26.9727 16.6657 26.7791 16.6657C26.4313 16.6657 26.1863 16.8277 26.0321 17.1557C25.8899 17.4877 25.8187 17.8948 25.8266 18.369C25.8503 19.4361 26.21 19.9814 26.8858 19.9973C27.4035 19.9973 27.692 19.6653 27.7671 18.9974H29.4309C29.3716 19.7167 29.1345 20.3134 28.7116 20.76C28.2887 21.2105 27.7117 21.4397 26.9806 21.4397C26.4115 21.4397 25.9215 21.3133 25.4867 21.0683C25.056 20.8232 24.7161 20.4675 24.4869 20.0091C24.2498 19.5507 24.1233 19.0092 24.0956 18.373C24.0798 17.6695 24.1984 17.0767 24.4513 16.5985C24.7042 16.1164 25.0362 15.7686 25.4354 15.5473C25.8424 15.318 26.2495 15.2153 26.6724 15.2232C27.605 15.2509 28.269 15.488 28.6484 15.9425C29.0317 16.4088 29.2767 16.97 29.3597 17.6379H27.7236L27.7276 17.6418Z" fill="#FEFEFE"/>
<path fill-rule="evenodd" clip-rule="evenodd" d="M34.0388 21.1948L35.2363 21.179L35.3707 22.5108L34.1653 22.5305L34.0388 21.1948Z" fill="#FEFEFE"/>
<path fill-rule="evenodd" clip-rule="evenodd" d="M29.095 20.7283H30.3003L30.3478 22.0641H29.1463L29.095 20.7283Z" fill="#FEFEFE"/>
<path fill-rule="evenodd" clip-rule="evenodd" d="M22.1392 18.6615L23.3445 18.5944L23.5224 19.9143L22.317 19.9855L22.1392 18.6615Z" fill="#FEFEFE"/>
<path fill-rule="evenodd" clip-rule="evenodd" d="M16.6182 14.3182L20.9101 14.0653L21.1037 15.4288L18.5349 15.5829L18.6535 16.4286L20.8152 16.3022L21.001 17.6696L18.8392 17.796L18.9657 18.7129L21.6293 18.5509L21.8072 19.9143L17.4204 20.1791L16.6182 14.3182Z" fill="#FEFEFE"/>
<path fill-rule="evenodd" clip-rule="evenodd" d="M24.072 25.7593C24.0799 25.4115 23.8783 25.1981 23.4515 25.123C23.1195 25.0637 22.9259 25.1388 22.8745 25.3601C22.8508 25.4866 22.8824 25.613 22.9931 25.7237C23.0958 25.8264 23.2381 25.9252 23.4238 26.0201C23.6096 26.1149 23.7993 26.1979 23.9653 26.2849C24.5502 26.5576 24.9651 26.8619 25.2022 27.1938C25.4473 27.5337 25.5263 27.9487 25.4394 28.4506C25.3643 28.9406 25.1864 29.324 24.9137 29.5888C24.6332 29.8536 24.3051 30.0196 23.9139 30.0986C23.5226 30.1658 23.1156 30.1658 22.6927 30.0907C22.0564 29.98 21.5624 29.7073 21.183 29.2608C20.7997 28.8102 20.6495 28.2767 20.7167 27.676L22.3449 27.9566C22.3449 28.2016 22.4121 28.3874 22.5662 28.5059C22.7085 28.6324 22.8705 28.7075 23.0405 28.7351C23.4634 28.7865 23.7005 28.6838 23.7716 28.4387C23.823 28.2688 23.7637 28.1265 23.6096 28.008C23.4475 27.8894 23.2025 27.7432 22.8626 27.5851C22.4398 27.3796 22.0999 27.1859 21.8628 27.0081C21.6257 26.8303 21.4399 26.5931 21.3134 26.2967C21.187 26.0003 21.1593 25.6447 21.2305 25.202C21.3332 24.6685 21.6019 24.2614 22.0525 23.9887C22.5109 23.7161 23.0879 23.6489 23.7835 23.7674C24.155 23.8267 24.4869 23.9453 24.7754 24.1231C25.0718 24.2931 25.301 24.5381 25.471 24.8701C25.6409 25.1941 25.716 25.5814 25.6923 26.0478L24.072 25.7672V25.7593Z" fill="#FEFEFE"/>
<path fill-rule="evenodd" clip-rule="evenodd" d="M30.3755 25.7791L30.6719 25.8067C31.4346 25.8739 31.9879 26.1031 32.3357 26.5023C32.6084 26.8145 32.7506 27.2137 32.7586 27.6998V27.7946C32.7586 27.8895 32.7506 27.9803 32.7427 28.0831C32.719 28.3479 32.6598 28.5929 32.5649 28.8221C32.4622 29.0593 32.3278 29.2529 32.142 29.4228C31.9563 29.5928 31.7271 29.7192 31.4465 29.7864C31.1659 29.8734 30.8181 29.8892 30.4031 29.8536H30.3794V28.4783H30.3873C30.83 28.5218 31.075 28.3084 31.1066 27.8499C31.1422 27.4666 30.9011 27.2374 30.3755 27.1623V25.7791ZM28.1623 25.5815L27.6367 31.4502L29.3598 31.6044L29.5218 29.7706L30.3794 29.8457V28.4704L29.6404 28.4032L29.759 27.103L30.2688 27.1465C30.3122 27.1465 30.3439 27.1544 30.3794 27.1544V25.7712L28.1663 25.5775L28.1623 25.5815Z" fill="#FEFEFE"/>
<path fill-rule="evenodd" clip-rule="evenodd" d="M25.4906 29.4663L26.7276 29.6718L26.5577 31.0195L25.3286 30.8179L25.4906 29.4663Z" fill="#FEFEFE"/>
<path fill-rule="evenodd" clip-rule="evenodd" d="M30.656 30.1897L31.731 30.1304L31.7902 31.316L30.7153 31.3753L30.656 30.1897Z" fill="#FEFEFE"/>
<path fill-rule="evenodd" clip-rule="evenodd" d="M55.4626 20.3332H63.4023V18.3967H57.6639V16.5946H63.1889V14.8715H57.6639V12.9903H63.4023V11.0538H55.4626V20.3292V20.3332ZM68.6782 20.5308H68.6901C71.8715 20.5308 73.1836 19.4558 73.1836 17.5233C73.1836 15.733 72.1086 14.9387 69.9231 14.7529L68.2159 14.6067C67.2871 14.5395 66.8919 14.247 66.8919 13.6661C66.8919 13.0022 67.4215 12.6583 68.8679 12.6583C70.1128 12.6583 70.7768 12.9231 71.002 13.8518H73.0413C72.8951 11.283 70.9467 10.8562 68.947 10.8562C65.9118 10.8562 64.6788 11.8758 64.6788 13.678C64.6788 15.3339 65.7261 16.2349 67.8444 16.4088L69.5675 16.555C70.5357 16.6341 70.9309 16.9107 70.9309 17.5747C70.9309 18.369 70.2828 18.7405 68.8245 18.7405C67.6191 18.7405 66.7457 18.4757 66.56 17.547H64.5326C64.6788 20.1316 66.6943 20.5268 68.6822 20.5268L68.6782 20.5308ZM74.4561 20.3332H76.6574V18.1714H79.5068C82.0914 18.1714 83.1783 16.6222 83.1783 14.6067C83.1783 12.5911 82.0914 11.0538 79.5068 11.0538H74.4561V20.3292V20.3332ZM76.6535 16.2231V13.0022H79.2499C80.4435 13.0022 80.973 13.5594 80.973 14.6067C80.973 15.654 80.4435 16.2231 79.2499 16.2231H76.6535ZM89.3395 20.5308C92.5051 20.5308 94.3625 18.3967 94.3625 15.6935C94.3625 12.9903 92.509 10.8562 89.3395 10.8562C86.17 10.8562 84.3283 12.9903 84.3283 15.6935C84.3283 18.3967 86.17 20.5308 89.3395 20.5308ZM89.3395 18.5311C87.5255 18.5311 86.5573 17.3375 86.5573 15.6935C86.5573 14.0494 87.5255 12.8559 89.3395 12.8559C91.1535 12.8559 92.1375 14.0494 92.1375 15.6935C92.1375 17.3375 91.1693 18.5311 89.3395 18.5311ZM95.6469 20.3332H97.8482V17.6972H100.951L102.357 20.3332H104.571L102.887 17.2308C103.922 16.6617 104.373 15.6263 104.373 14.3814C104.373 12.4844 103.326 11.0538 100.769 11.0538H95.6548V20.3292L95.6469 20.3332ZM97.8482 15.7449V13.0022H100.5C101.694 13.0022 102.168 13.4645 102.168 14.3814C102.168 15.2983 101.69 15.7449 100.5 15.7449H97.8482Z" fill="#FEFEFE"/>
<path fill-rule="evenodd" clip-rule="evenodd" d="M108.566 20.3332H110.768V13.0061H114.095V11.0578H105.231V13.0061H108.57V20.3332H108.566ZM115.297 20.3332H123.236V18.3967H117.498V16.5946H123.023V14.8715H117.498V12.9903H123.236V11.0538H115.297V20.3292V20.3332ZM131.887 20.5308C134.456 20.5308 136.155 19.1792 136.539 16.8475H134.393C133.97 18.0924 133.093 18.5311 131.887 18.5311C130.073 18.5311 129.105 17.3375 129.105 15.6935C129.105 14.0494 130.073 12.8559 131.887 12.8559C133.093 12.8559 133.966 13.2946 134.393 14.5395H136.539C136.155 12.2078 134.456 10.8562 131.887 10.8562C128.722 10.8562 126.876 12.9903 126.876 15.6935C126.876 18.3967 128.718 20.5308 131.887 20.5308ZM137.878 20.3332H145.739V18.3848H140.08V11.0538H137.878V20.3292V20.3332Z" fill="#FEFEFE"/>
<path fill-rule="evenodd" clip-rule="evenodd" d="M151.035 20.5308C154.177 20.5308 155.461 18.9263 155.461 16.2389V11.0578H153.26V16.2389C153.26 17.7644 152.545 18.5311 151.035 18.5311C149.525 18.5311 148.81 17.7604 148.81 16.2389V11.0578H146.609V16.2389C146.609 18.9302 147.881 20.5308 151.035 20.5308ZM157.066 20.3332H162.5C164.911 20.3332 165.721 19.2187 165.721 17.8434C165.721 16.9028 165.337 16.0808 164.116 15.6303C165.084 15.2074 165.416 14.4368 165.416 13.5634C165.416 12.2118 164.622 11.0578 162.235 11.0578H157.066V20.3332ZM159.267 18.4362V16.4879L162.223 16.476C163.152 16.476 163.523 16.7961 163.523 17.4561C163.523 18.1161 163.152 18.4362 162.223 18.4362H159.267ZM159.267 14.7766V12.9469H162.049C162.871 12.9469 163.215 13.2512 163.215 13.8598C163.215 14.4684 162.871 14.7727 162.049 14.7727H159.267V14.7766ZM167.06 20.3332H175V18.3967H169.262V16.5946H174.787V14.8715H169.262V12.9903H175V11.0538H167.06V20.3293V20.3332Z" fill="#FEFEFE"/>
<path fill-rule="evenodd" clip-rule="evenodd" d="M55.459 38.9276H58.8222V35.6237H63.1813C67.1333 35.6237 68.7971 33.2525 68.7971 30.1699C68.7971 27.0873 67.1333 24.7398 63.1813 24.7398H55.459V38.9276ZM58.8222 32.6439V27.7196H62.794C64.6198 27.7196 65.43 28.5693 65.43 30.1738C65.43 31.7784 64.6198 32.6478 62.794 32.6478H58.8222V32.6439ZM71.0656 38.9276H74.4287V24.7398H71.0656V38.9276ZM76.879 38.9276H80.2422V30.4347L80.2224 28.6325H80.424L86.5457 38.9276H90.9048V24.7398H87.5416V33.2327L87.5614 35.0348H87.3598L81.2381 24.7398H76.879V38.9276ZM104.061 38.9276H107.424V24.7398H104.061V30.822H96.7459V24.7398H93.3827V38.9276H96.7459V33.6595H104.061V38.9276ZM109.898 38.9276H122.039V35.9675H113.261V33.209H121.715V30.573H113.261V27.6959H122.039V24.7358H109.898V38.9236V38.9276ZM124.268 38.9276H127.631V24.7398H124.268V38.9276ZM130.085 38.9276H133.448V34.8926H138.191L140.341 38.9276H143.724L141.151 34.1852C142.732 33.3157 143.419 31.7309 143.419 29.8261C143.419 26.9292 141.819 24.7398 137.906 24.7398H130.081V38.9276H130.085ZM133.448 31.9167V27.7196H137.503C139.329 27.7196 140.056 28.431 140.056 29.8261C140.056 31.2211 139.325 31.9127 137.503 31.9127H133.448V31.9167Z" fill="#FEFEFE"/>
<path fill-rule="evenodd" clip-rule="evenodd" d="M152.521 39.2318C157.366 39.2318 160.204 35.9675 160.204 31.8336C160.204 27.6998 157.366 24.4354 152.521 24.4354C147.676 24.4354 144.858 27.6998 144.858 31.8336C144.858 35.9675 147.676 39.2318 152.521 39.2318ZM152.521 36.173C149.743 36.173 148.265 34.3471 148.265 31.8376C148.265 29.328 149.743 27.4983 152.521 27.4983C155.299 27.4983 156.797 29.3241 156.797 31.8376C156.797 34.3511 155.319 36.173 152.521 36.173ZM168.005 39.2318H168.025C172.89 39.2318 174.897 37.5878 174.897 34.6317C174.897 31.8969 173.253 30.6796 169.91 30.3951L167.294 30.1738C165.875 30.071 165.266 29.6284 165.266 28.7352C165.266 27.7235 166.076 27.1939 168.286 27.1939C170.19 27.1939 171.206 27.601 171.55 29.0198H174.672C174.451 25.0875 171.471 24.4394 168.408 24.4394C163.768 24.4394 161.883 26.0004 161.883 28.755C161.883 31.2883 163.484 32.6675 166.728 32.9283L169.364 33.1497C170.843 33.2722 171.451 33.699 171.451 34.7107C171.451 35.9279 170.459 36.4931 168.23 36.4931C166.385 36.4931 165.049 36.086 164.764 34.6672H161.662C161.887 38.6193 164.966 39.2279 168.005 39.2279V39.2318Z" fill="#FEFEFE"/>
</svg>
                